<?xml version="1.0" encoding="utf-8"?>
<!-- Generator: Adobe Illustrator 16.0.4, SVG Export Plug-In . SVG Version: 6.00 Build 0)  -->
<!DOCTYPE svg PUBLIC "-//W3C//DTD SVG 1.1//EN" "http://www.w3.org/Graphics/SVG/1.1/DTD/svg11.dtd">
<svg version="1.1" id="Layer_1" xmlns="http://www.w3.org/2000/svg" xmlns:xlink="http://www.w3.org/1999/xlink" x="0px" y="0px"
	 width="320px" height="55.847px" viewBox="0 0 320 55.847" enable-background="new 0 0 320 55.847" xml:space="preserve">
<g>
	<path fill="#041E41" d="M95.944,31.002l-3.12,0.614l-3.942-21.544l-0.042,0.006c-0.497,1.035-1.602,3.439-3.312,7.21
		c-1.712,3.773-3.379,7.557-5.002,11.354h-2.643c-1.519-3.512-3.195-7.308-5.032-11.389c-1.838-4.081-2.915-6.459-3.234-7.136
		l-0.042-0.007c-0.076,0.333-0.589,2.777-1.544,7.331c-0.954,4.554-1.862,9.265-2.726,14.132l-2.973-0.535
		c1.277-5.509,2.471-10.966,3.582-16.373c1.11-5.406,1.717-8.339,1.818-8.8l3.045-0.44c0.129,0.294,1.033,2.352,2.71,6.173
		c1.679,3.821,3.654,8.224,5.929,13.208h0.114c1.738-3.911,3.576-8.077,5.517-12.5s2.95-6.716,3.026-6.882l2.893,0.229
		c0.039,0.282,0.567,3.083,1.59,8.408C93.576,19.388,94.707,25.034,95.944,31.002z"/>
	<path fill="#041E41" d="M102.053,8.282h-3.346V4.977h3.346V8.282z M101.89,31.371h-3.018c0.013-0.203,0.03-1.461,0.05-3.771
		c0.021-2.31,0.031-4.218,0.031-5.725c0-1.315-0.003-2.761-0.01-4.336c-0.007-1.577-0.031-3.424-0.071-5.544h3.018
		c-0.021,1.838-0.04,3.559-0.057,5.161c-0.017,1.603-0.025,3.028-0.025,4.279c0,2.975,0.014,5.361,0.042,7.162
		C101.876,30.395,101.89,31.32,101.89,31.371z"/>
	<path fill="#041E41" d="M121.858,31.371h-3.019c0.013-0.357,0.031-1.539,0.051-3.546c0.02-2.005,0.029-3.245,0.029-3.718
		c0-0.664-0.002-1.645-0.009-2.943c-0.006-1.296-0.017-2.245-0.03-2.847c-0.04-1.468-0.32-2.523-0.845-3.162
		c-0.524-0.639-1.432-0.959-2.723-0.959c-0.78,0-1.746,0.229-2.895,0.689c-1.152,0.458-2.317,1.045-3.492,1.759
		c0,0.141-0.007,0.901-0.021,2.282s-0.02,2.639-0.02,3.777c0,1.483,0.013,3.273,0.041,5.369c0.028,2.097,0.042,3.196,0.042,3.298
		h-3.018c0-0.089,0.012-0.87,0.04-2.345c0.025-1.475,0.042-3.667,0.042-6.578c0-1.341-0.005-2.91-0.011-4.71
		c-0.007-1.8-0.031-3.715-0.071-5.745h2.976v2.203l0.021,0.04c1.785-1.034,3.275-1.755,4.468-2.162
		c1.192-0.406,2.186-0.611,2.977-0.611c1.637,0,2.949,0.516,3.939,1.544s1.487,2.439,1.487,4.229c0,1.611-0.007,3.001-0.021,4.171
		c-0.015,1.17-0.02,2.12-0.02,2.849c0,1.163,0.013,2.618,0.042,4.362C121.844,30.364,121.858,31.282,121.858,31.371z"/>
	<path fill="#041E41" d="M141.497,31.371h-3.019c0.015-0.357,0.031-1.539,0.051-3.546c0.021-2.005,0.032-3.245,0.032-3.718
		c0-0.664-0.004-1.645-0.01-2.943c-0.008-1.296-0.018-2.245-0.03-2.847c-0.039-1.468-0.32-2.523-0.845-3.162
		c-0.525-0.639-1.432-0.959-2.722-0.959c-0.781,0-1.748,0.229-2.898,0.689c-1.151,0.458-2.314,1.045-3.491,1.759
		c0,0.141-0.005,0.901-0.019,2.282c-0.015,1.381-0.021,2.639-0.021,3.777c0,1.483,0.014,3.273,0.04,5.369
		c0.027,2.097,0.043,3.196,0.043,3.298h-3.021c0-0.089,0.014-0.87,0.042-2.345c0.025-1.475,0.04-3.667,0.04-6.578
		c0-1.341-0.004-2.91-0.011-4.71c-0.007-1.8-0.029-3.715-0.071-5.745h2.978v2.203l0.021,0.04c1.786-1.034,3.276-1.755,4.47-2.162
		c1.193-0.406,2.185-0.611,2.976-0.611c1.635,0,2.949,0.516,3.94,1.544s1.485,2.439,1.485,4.229c0,1.611-0.007,3.001-0.019,4.171
		c-0.014,1.17-0.021,2.12-0.021,2.849c0,1.163,0.012,2.618,0.04,4.362C141.484,30.364,141.497,31.282,141.497,31.371z"/>
	<path fill="#041E41" d="M160.832,20.968h-13.856c0.014,1.355,0.3,2.598,0.862,3.729c0.562,1.13,1.424,2.066,2.586,2.807
		c0.741,0.474,1.583,0.828,2.529,1.063c0.944,0.237,2.081,0.356,3.41,0.356c0.729,0,1.395-0.019,2.002-0.054
		c0.605-0.034,0.98-0.058,1.12-0.07l-0.344,2.529c-0.104,0.015-0.443,0.038-1.018,0.072c-0.575,0.033-1.253,0.052-2.034,0.052
		c-2.046,0-3.828-0.266-5.342-0.797c-1.517-0.531-2.76-1.264-3.732-2.197c-0.831-0.78-1.537-1.777-2.119-2.992
		c-0.583-1.215-0.874-2.564-0.874-4.047c0-1.458,0.217-2.775,0.652-3.953c0.436-1.176,1.087-2.269,1.957-3.28
		c0.756-0.869,1.69-1.541,2.812-2.015c1.118-0.472,2.278-0.71,3.481-0.71c1.189,0,2.244,0.181,3.165,0.539
		c0.919,0.358,1.722,0.903,2.398,1.631c0.755,0.82,1.33,1.828,1.727,3.024C160.615,17.855,160.819,19.291,160.832,20.968z
		 M157.853,18.806c-0.205-1.59-0.744-2.837-1.618-3.742c-0.874-0.905-2.026-1.358-3.456-1.358c-1.431,0-2.626,0.459-3.583,1.376
		c-0.957,0.917-1.621,2.159-1.991,3.723H157.853z"/>
	<path fill="#041E41" d="M175.126,25.767c0,0.946-0.231,1.789-0.692,2.531c-0.459,0.74-1.06,1.34-1.8,1.8
		c-0.78,0.486-1.704,0.854-2.769,1.104c-1.067,0.248-2.247,0.372-3.535,0.372c-0.627,0-1.275-0.03-1.943-0.091
		c-0.672-0.062-1.053-0.1-1.144-0.113l-0.113-2.529c0.113,0.014,0.558,0.051,1.329,0.112c0.772,0.062,1.541,0.093,2.305,0.093
		c0.448,0,1.021-0.038,1.724-0.115c0.7-0.076,1.28-0.215,1.741-0.418c0.638-0.279,1.109-0.623,1.416-1.03
		c0.306-0.406,0.458-0.894,0.458-1.467c0-0.523-0.132-0.948-0.401-1.274c-0.268-0.326-0.638-0.642-1.111-0.949
		c-0.511-0.345-1.21-0.712-2.097-1.103c-0.887-0.389-1.631-0.762-2.23-1.12c-0.855-0.525-1.51-1.144-1.963-1.86
		c-0.454-0.715-0.681-1.546-0.681-2.493c0-0.946,0.26-1.794,0.778-2.55c0.518-0.752,1.212-1.36,2.083-1.821
		c0.755-0.408,1.59-0.68,2.503-0.814c0.916-0.134,1.802-0.202,2.658-0.202c0.78,0,1.421,0.015,1.919,0.041
		c0.498,0.027,0.787,0.042,0.863,0.042l0.212,2.529c-0.089,0-0.484-0.027-1.181-0.083c-0.697-0.053-1.459-0.081-2.291-0.081
		c-0.589,0-1.148,0.051-1.679,0.155c-0.53,0.103-0.98,0.252-1.353,0.443c-0.551,0.285-0.942,0.627-1.179,1.026
		c-0.236,0.401-0.354,0.787-0.354,1.16c0,0.512,0.164,0.953,0.498,1.323c0.331,0.371,0.721,0.684,1.168,0.939
		c0.524,0.308,1.237,0.671,2.146,1.093c0.906,0.423,1.565,0.762,1.973,1.017c0.893,0.561,1.575,1.188,2.041,1.878
		C174.891,24.004,175.126,24.82,175.126,25.767z"/>
	<path fill="#041E41" d="M195.716,21.662c0,1.482-0.267,2.902-0.796,4.255c-0.531,1.355-1.293,2.512-2.291,3.47
		c-0.844,0.806-1.779,1.419-2.808,1.84c-1.029,0.422-2.196,0.633-3.497,0.633c-1.227,0-2.378-0.207-3.451-0.622
		c-1.073-0.416-2.032-1.025-2.876-1.832c-0.972-0.932-1.721-2.083-2.25-3.449c-0.532-1.368-0.798-2.812-0.798-4.333
		c0-1.47,0.226-2.821,0.68-4.055c0.454-1.232,1.16-2.341,2.118-3.326c0.856-0.894,1.854-1.581,2.989-2.061
		c1.137-0.479,2.339-0.719,3.604-0.719c1.329,0,2.535,0.222,3.613,0.662c1.079,0.442,2.042,1.103,2.884,1.985
		c0.972,1.009,1.693,2.144,2.166,3.403C195.478,18.771,195.716,20.154,195.716,21.662z M192.655,21.795
		c0-1.198-0.194-2.365-0.585-3.501c-0.39-1.137-0.995-2.093-1.813-2.871c-0.499-0.484-1.089-0.858-1.775-1.119
		c-0.684-0.262-1.398-0.394-2.14-0.394c-0.883,0-1.65,0.141-2.303,0.422c-0.653,0.281-1.266,0.721-1.843,1.32
		c-0.676,0.69-1.212,1.57-1.602,2.642c-0.389,1.072-0.584,2.183-0.584,3.33c0,1.302,0.197,2.498,0.595,3.589
		c0.396,1.091,1.037,2.032,1.919,2.822c0.498,0.447,1.073,0.789,1.726,1.024c0.652,0.235,1.344,0.354,2.074,0.354
		c0.804,0,1.557-0.14,2.253-0.421c0.696-0.28,1.308-0.688,1.834-1.224c0.728-0.74,1.282-1.633,1.668-2.681
		C192.464,24.042,192.655,22.944,192.655,21.795z"/>
	<path fill="#041E41" d="M209.654,29.004l-0.345,2.449c-0.09,0.008-0.311,0.017-0.662,0.027c-0.35,0.007-0.655,0.013-0.91,0.013
		c-2.62,0-4.602-0.546-5.941-1.637c-1.343-1.092-2.014-2.768-2.014-5.029c0-1.417,0.006-2.937,0.02-4.558
		c0.012-1.621,0.021-3.632,0.021-6.033h-3.223v-2.243h3.387V7.466h2.773v4.528h6.894v2.243h-6.894c0,0.269-0.007,1.066-0.021,2.392
		c-0.013,1.326-0.019,2.309-0.019,2.946c0,0.535,0,1.192,0,1.97c0,0.778,0,1.702,0,2.773c0,1.659,0.447,2.854,1.343,3.587
		c0.896,0.733,2.279,1.099,4.15,1.099c0.23,0,0.504,0,0.825,0C209.36,29.004,209.564,29.004,209.654,29.004z"/>
	<path fill="#041E41" d="M226.551,20.432c0,3.163-0.008,5.738-0.022,7.726c-0.014,1.989-0.021,3.06-0.021,3.213
		c-0.127,0.016-0.723,0.075-1.783,0.176c-1.061,0.1-2.426,0.151-4.1,0.151c-1.048,0-2.101-0.097-3.161-0.289
		c-1.061-0.191-1.977-0.466-2.74-0.825c-1.024-0.474-1.853-1.121-2.484-1.94c-0.633-0.819-0.948-1.806-0.948-2.959
		c0-1.216,0.374-2.269,1.123-3.16c0.75-0.89,1.787-1.611,3.118-2.161c0.831-0.346,1.938-0.656,3.329-0.932
		c1.39-0.275,2.971-0.483,4.749-0.625c-0.077-0.992-0.326-1.809-0.749-2.445c-0.424-0.637-1.046-1.121-1.866-1.452
		c-0.562-0.229-1.191-0.392-1.885-0.487c-0.691-0.096-1.497-0.144-2.42-0.144c-0.578,0-1.068,0.012-1.471,0.035
		c-0.404,0.023-0.952,0.053-1.644,0.086l0.305-2.529c0.192-0.013,0.572-0.036,1.143-0.071c0.569-0.034,1.347-0.051,2.331-0.051
		c1.512,0,2.857,0.157,4.04,0.469c1.185,0.312,2.167,0.819,2.948,1.52c0.729,0.664,1.278,1.483,1.65,2.458
		C226.364,17.171,226.551,18.583,226.551,20.432z M223.612,25.059c0-0.435,0-0.988,0-1.656c0-0.667-0.005-1.438-0.02-2.312
		c-0.56,0.026-1.546,0.139-2.952,0.337c-1.407,0.199-2.587,0.485-3.545,0.857c-0.716,0.271-1.352,0.675-1.908,1.214
		c-0.555,0.539-0.834,1.208-0.834,2.005c0,0.873,0.236,1.576,0.71,2.108c0.476,0.534,1.121,0.942,1.941,1.225
		c0.627,0.219,1.321,0.376,2.086,0.472c0.761,0.097,1.566,0.146,2.41,0.146c0.254,0,0.568-0.008,0.94-0.021s0.762-0.025,1.172-0.038
		c0-0.09,0-0.513,0-1.271C223.612,27.367,223.612,26.345,223.612,25.059z"/>
	<path fill="#041E41" d="M255.702,24.133c0,1.315-0.31,2.468-0.927,3.457c-0.621,0.989-1.453,1.79-2.5,2.403
		c-0.961,0.562-2.056,0.986-3.295,1.272c-1.238,0.287-2.611,0.432-4.115,0.432c-0.82,0-1.665-0.024-2.539-0.072
		c-0.875-0.05-1.382-0.08-1.523-0.091l-0.153-2.734c0.179,0.026,0.675,0.073,1.491,0.142c0.814,0.07,1.775,0.104,2.884,0.104
		c0.676,0,1.547-0.091,2.619-0.271c1.067-0.18,1.891-0.411,2.464-0.694c0.75-0.373,1.326-0.823,1.727-1.35
		c0.402-0.528,0.604-1.196,0.604-2.005c0-0.855-0.201-1.58-0.604-2.173c-0.401-0.593-1.068-1.164-1.998-1.713
		c-0.6-0.358-1.381-0.76-2.334-1.207c-0.958-0.447-1.82-0.906-2.584-1.379c-1.3-0.791-2.229-1.656-2.785-2.594
		c-0.555-0.938-0.832-1.982-0.832-3.131c0-1.174,0.251-2.192,0.758-3.054c0.504-0.862,1.162-1.599,1.965-2.211
		c0.819-0.613,1.822-1.073,3.006-1.379c1.186-0.306,2.5-0.459,3.947-0.459c0.794,0,1.597,0.024,2.41,0.071
		c0.814,0.048,1.277,0.079,1.393,0.091l0.268,2.733c-0.115-0.013-0.58-0.056-1.401-0.131c-0.815-0.076-1.826-0.113-3.027-0.113
		c-0.715,0-1.454,0.08-2.213,0.241c-0.759,0.161-1.428,0.408-2.002,0.742c-0.51,0.295-0.945,0.708-1.305,1.235
		c-0.356,0.527-0.536,1.143-0.536,1.851c0,0.626,0.189,1.229,0.565,1.81c0.375,0.581,1.082,1.178,2.115,1.791
		c0.52,0.319,1.216,0.686,2.076,1.102c0.86,0.416,1.707,0.865,2.535,1.349c1.275,0.754,2.236,1.619,2.879,2.595
		C255.379,21.77,255.702,22.883,255.702,24.133z"/>
	<path fill="#041E41" d="M270.354,29.004l-0.345,2.449c-0.09,0.008-0.31,0.017-0.661,0.027c-0.352,0.007-0.655,0.013-0.908,0.013
		c-2.62,0-4.603-0.546-5.945-1.637c-1.341-1.092-2.011-2.768-2.011-5.029c0-1.417,0.007-2.937,0.02-4.558
		c0.014-1.621,0.02-3.632,0.02-6.033h-3.221v-2.243h3.384V7.466h2.774v4.528h6.894v2.243h-6.894c0,0.269-0.006,1.066-0.02,2.392
		c-0.014,1.326-0.021,2.309-0.021,2.946c0,0.535,0,1.192,0,1.97c0,0.778,0,1.702,0,2.773c0,1.659,0.448,2.854,1.345,3.587
		s2.28,1.099,4.15,1.099c0.228,0,0.505,0,0.825,0C270.06,29.004,270.266,29.004,270.354,29.004z"/>
	<path fill="#041E41" d="M287.251,20.432c0,3.163-0.008,5.738-0.02,7.726c-0.015,1.989-0.021,3.06-0.021,3.213
		c-0.127,0.016-0.723,0.075-1.782,0.176c-1.06,0.1-2.428,0.151-4.102,0.151c-1.048,0-2.1-0.097-3.161-0.289
		c-1.06-0.191-1.974-0.466-2.74-0.825c-1.022-0.474-1.851-1.121-2.482-1.94c-0.632-0.819-0.948-1.806-0.948-2.959
		c0-1.216,0.375-2.269,1.122-3.16c0.75-0.89,1.788-1.611,3.119-2.161c0.829-0.346,1.94-0.656,3.328-0.932
		c1.389-0.275,2.971-0.483,4.752-0.625c-0.079-0.992-0.33-1.809-0.753-2.445c-0.422-0.637-1.044-1.121-1.862-1.452
		c-0.565-0.229-1.193-0.392-1.885-0.487c-0.692-0.096-1.499-0.144-2.424-0.144c-0.574,0-1.067,0.012-1.47,0.035
		c-0.404,0.023-0.95,0.053-1.645,0.086l0.307-2.529c0.193-0.013,0.573-0.036,1.144-0.071c0.568-0.034,1.347-0.051,2.329-0.051
		c1.512,0,2.856,0.157,4.043,0.469c1.183,0.312,2.164,0.819,2.945,1.52c0.729,0.664,1.28,1.483,1.65,2.458
		C287.067,17.171,287.251,18.583,287.251,20.432z M284.316,25.059c0-0.435,0-0.988,0-1.656c0-0.667-0.008-1.438-0.021-2.312
		c-0.562,0.026-1.546,0.139-2.952,0.337c-1.405,0.199-2.587,0.485-3.547,0.857c-0.716,0.271-1.353,0.675-1.907,1.214
		c-0.556,0.539-0.835,1.208-0.835,2.005c0,0.873,0.236,1.576,0.711,2.108c0.474,0.534,1.123,0.942,1.941,1.225
		c0.626,0.219,1.321,0.376,2.085,0.472c0.761,0.097,1.565,0.146,2.412,0.146c0.254,0,0.569-0.008,0.94-0.021
		c0.37-0.013,0.762-0.025,1.174-0.038c0-0.09,0-0.513,0-1.271C284.316,27.367,284.316,26.345,284.316,25.059z"/>
	<path fill="#041E41" d="M301.473,29.004l-0.343,2.449c-0.092,0.008-0.313,0.017-0.665,0.027c-0.35,0.007-0.654,0.013-0.909,0.013
		c-2.621,0-4.602-0.546-5.943-1.637c-1.341-1.092-2.012-2.768-2.012-5.029c0-1.417,0.006-2.937,0.02-4.558
		c0.014-1.621,0.02-3.632,0.02-6.033h-3.221v-2.243h3.385V7.466h2.774v4.528h6.894v2.243h-6.894c0,0.269-0.008,1.066-0.02,2.392
		c-0.015,1.326-0.022,2.309-0.022,2.946c0,0.535,0,1.192,0,1.97c0,0.778,0,1.702,0,2.773c0,1.659,0.451,2.854,1.346,3.587
		c0.895,0.733,2.278,1.099,4.149,1.099c0.23,0,0.504,0,0.825,0C301.178,29.004,301.382,29.004,301.473,29.004z"/>
	<path fill="#041E41" d="M320,20.968h-13.855c0.014,1.355,0.301,2.598,0.862,3.729c0.562,1.13,1.422,2.066,2.585,2.807
		c0.741,0.474,1.583,0.828,2.529,1.063c0.944,0.237,2.082,0.356,3.41,0.356c0.727,0,1.396-0.019,2.001-0.054
		c0.607-0.034,0.981-0.058,1.121-0.07l-0.345,2.529c-0.103,0.015-0.442,0.038-1.017,0.072c-0.575,0.033-1.252,0.052-2.034,0.052
		c-2.045,0-3.829-0.266-5.341-0.797c-1.516-0.531-2.759-1.264-3.731-2.197c-0.832-0.78-1.539-1.777-2.121-2.992
		c-0.581-1.215-0.873-2.564-0.873-4.047c0-1.458,0.218-2.775,0.653-3.953c0.436-1.176,1.087-2.269,1.958-3.28
		c0.754-0.869,1.691-1.541,2.81-2.015c1.118-0.472,2.281-0.71,3.484-0.71c1.19,0,2.245,0.181,3.165,0.539
		c0.919,0.358,1.72,0.903,2.398,1.631c0.755,0.82,1.331,1.828,1.727,3.024C319.784,17.855,319.988,19.291,320,20.968z
		 M317.023,18.806c-0.204-1.59-0.745-2.837-1.62-3.742c-0.875-0.905-2.027-1.358-3.456-1.358s-2.625,0.459-3.581,1.376
		c-0.957,0.917-1.621,2.159-1.991,3.723H317.023z"/>
	<path fill="#041E41" d="M70.628,48.524c-0.006,0.055-0.022,0.207-0.05,0.458c-0.028,0.251-0.054,0.524-0.078,0.821
		c-0.048,0-0.103,0-0.16,0c-0.058,0-0.111,0-0.159,0c-1.481,0-2.798-0.187-3.951-0.561c-1.156-0.375-2.102-0.916-2.842-1.628
		c-0.517-0.492-0.924-1.081-1.226-1.769c-0.301-0.687-0.449-1.471-0.449-2.352c0-0.79,0.148-1.512,0.446-2.164
		c0.299-0.654,0.686-1.225,1.167-1.71c0.699-0.705,1.637-1.265,2.815-1.678c1.177-0.414,2.439-0.62,3.781-0.62
		c0.068,0,0.145,0,0.229,0c0.084,0,0.146,0,0.183,0c0.006,0.108,0.016,0.283,0.035,0.522c0.02,0.239,0.041,0.497,0.064,0.775
		c-0.062,0-0.112,0-0.154,0c-0.044,0-0.094,0-0.155,0c-0.761,0-1.549,0.085-2.363,0.252c-0.816,0.167-1.517,0.419-2.108,0.752
		c-0.767,0.438-1.356,1-1.769,1.685c-0.415,0.684-0.621,1.422-0.621,2.214c0,0.82,0.184,1.567,0.554,2.24
		c0.373,0.672,0.959,1.236,1.76,1.693c0.655,0.376,1.39,0.65,2.201,0.82c0.81,0.171,1.618,0.256,2.42,0.256c0.036,0,0.093,0,0.172,0
		C70.453,48.533,70.537,48.531,70.628,48.524z"/>
	<path fill="#041E41" d="M80.341,45.016c0,0.704-0.126,1.378-0.378,2.022c-0.252,0.644-0.615,1.193-1.089,1.647
		c-0.4,0.383-0.846,0.675-1.335,0.875c-0.486,0.2-1.042,0.3-1.661,0.3c-0.583,0-1.129-0.099-1.639-0.296
		c-0.509-0.197-0.964-0.486-1.365-0.869c-0.462-0.443-0.819-0.989-1.07-1.641c-0.252-0.648-0.378-1.335-0.378-2.058
		c0-0.697,0.108-1.34,0.324-1.926c0.214-0.586,0.552-1.111,1.005-1.579c0.409-0.425,0.881-0.753,1.421-0.979
		c0.54-0.229,1.112-0.342,1.712-0.342c0.63,0,1.203,0.105,1.716,0.313c0.514,0.211,0.97,0.524,1.371,0.943
		c0.461,0.479,0.804,1.018,1.029,1.617C80.229,43.641,80.341,44.3,80.341,45.016z M78.887,45.08c0-0.569-0.092-1.124-0.277-1.662
		c-0.186-0.541-0.473-0.995-0.861-1.365c-0.237-0.23-0.519-0.408-0.844-0.531c-0.325-0.125-0.664-0.188-1.016-0.188
		c-0.419,0-0.784,0.067-1.095,0.2c-0.31,0.134-0.602,0.344-0.875,0.628c-0.321,0.327-0.575,0.745-0.76,1.256
		c-0.185,0.508-0.279,1.035-0.279,1.58c0,0.618,0.096,1.188,0.285,1.705c0.187,0.519,0.491,0.965,0.91,1.342
		c0.237,0.212,0.51,0.374,0.821,0.486c0.31,0.111,0.639,0.167,0.984,0.167c0.383,0,0.741-0.065,1.071-0.199
		c0.331-0.133,0.622-0.326,0.871-0.582c0.346-0.352,0.611-0.775,0.793-1.273C78.795,46.147,78.887,45.625,78.887,45.08z"/>
	<path fill="#041E41" d="M95.287,49.628h-1.436c0.007-0.066,0.015-0.492,0.025-1.275c0.01-0.781,0.015-1.52,0.015-2.212
		c0-0.274-0.002-0.721-0.005-1.344c-0.003-0.621-0.008-1.088-0.015-1.396c-0.017-0.729-0.164-1.232-0.435-1.513
		c-0.27-0.278-0.689-0.419-1.255-0.419c-0.335,0-0.732,0.086-1.192,0.255s-0.978,0.433-1.557,0.793c0,0.029,0.003,0.091,0.01,0.181
		c0.007,0.09,0.01,0.208,0.01,0.353c0,0.489-0.003,0.986-0.01,1.49c-0.006,0.506-0.01,0.987-0.01,1.445
		c0,1.003,0.007,1.846,0.02,2.528s0.019,1.055,0.019,1.114h-1.433c0-0.066,0.006-0.434,0.02-1.101
		c0.013-0.67,0.019-1.458,0.019-2.369c0-0.303-0.001-0.763-0.005-1.379c-0.002-0.616-0.007-1.07-0.014-1.361
		c-0.007-0.267-0.031-0.521-0.074-0.766c-0.042-0.241-0.121-0.449-0.235-0.619c-0.129-0.188-0.292-0.328-0.492-0.423
		c-0.202-0.094-0.486-0.142-0.856-0.142c-0.341,0-0.739,0.103-1.194,0.306c-0.456,0.203-0.977,0.496-1.567,0.877
		c0,0.103-0.003,0.487-0.009,1.156c-0.007,0.666-0.01,1.212-0.01,1.635c0,0.719,0.007,1.581,0.019,2.586
		c0.014,1.007,0.02,1.54,0.02,1.6h-1.434c0-0.049,0.006-0.402,0.02-1.06c0.013-0.658,0.019-1.748,0.019-3.271
		c0-0.496,0-1.165-0.004-2.009c-0.005-0.843-0.015-1.798-0.034-2.865h1.414v1.057l0.01,0.01c0.407-0.298,0.918-0.591,1.533-0.883
		c0.616-0.29,1.161-0.436,1.633-0.436c0.596,0,1.092,0.127,1.488,0.378c0.398,0.252,0.682,0.572,0.852,0.959h0.019
		c0.697-0.437,1.34-0.769,1.926-0.996c0.586-0.228,1.085-0.341,1.499-0.341c0.837,0,1.491,0.244,1.962,0.732
		c0.47,0.489,0.706,1.15,0.706,1.982c0,0.645-0.004,1.187-0.01,1.627c-0.005,0.439-0.01,0.906-0.01,1.398
		c0,1.02,0.006,1.883,0.02,2.587C95.279,49.204,95.287,49.58,95.287,49.628z"/>
	<path fill="#041E41" d="M110.996,49.628h-1.434c0.006-0.066,0.015-0.492,0.023-1.275c0.011-0.781,0.016-1.52,0.016-2.212
		c0-0.274-0.003-0.721-0.005-1.344c-0.004-0.621-0.008-1.088-0.015-1.396c-0.019-0.729-0.162-1.232-0.432-1.513
		c-0.272-0.278-0.691-0.419-1.256-0.419c-0.336,0-0.733,0.086-1.193,0.255c-0.458,0.169-0.978,0.433-1.557,0.793
		c0,0.029,0.004,0.091,0.011,0.181c0.006,0.09,0.009,0.208,0.009,0.353c0,0.489-0.003,0.986-0.009,1.49
		c-0.007,0.506-0.011,0.987-0.011,1.445c0,1.003,0.008,1.846,0.021,2.528c0.013,0.683,0.02,1.055,0.02,1.114h-1.434
		c0-0.066,0.007-0.434,0.02-1.101c0.012-0.67,0.018-1.458,0.018-2.369c0-0.303-0.001-0.763-0.004-1.379
		c-0.003-0.616-0.009-1.07-0.014-1.361c-0.007-0.267-0.032-0.521-0.075-0.766c-0.042-0.241-0.121-0.449-0.236-0.619
		c-0.127-0.188-0.291-0.328-0.491-0.423c-0.202-0.094-0.486-0.142-0.857-0.142c-0.339,0-0.739,0.103-1.194,0.306
		c-0.454,0.203-0.978,0.496-1.566,0.877c0,0.103-0.003,0.487-0.01,1.156c-0.007,0.666-0.01,1.212-0.01,1.635
		c0,0.719,0.006,1.581,0.02,2.586c0.013,1.007,0.019,1.54,0.019,1.6h-1.433c0-0.049,0.004-0.402,0.019-1.06
		c0.012-0.658,0.019-1.748,0.019-3.271c0-0.496-0.001-1.165-0.003-2.009c-0.004-0.843-0.016-1.798-0.034-2.865h1.414v1.057
		l0.008,0.01c0.407-0.298,0.918-0.591,1.535-0.883c0.614-0.29,1.16-0.436,1.632-0.436c0.596,0,1.092,0.127,1.489,0.378
		c0.397,0.252,0.68,0.572,0.851,0.959h0.018c0.698-0.437,1.339-0.769,1.926-0.996c0.585-0.228,1.084-0.341,1.499-0.341
		c0.837,0,1.492,0.244,1.964,0.732c0.47,0.489,0.706,1.15,0.706,1.982c0,0.645-0.004,1.187-0.011,1.627
		c-0.006,0.439-0.009,0.906-0.009,1.398c0,1.02,0.006,1.883,0.02,2.587C110.989,49.204,110.996,49.58,110.996,49.628z"/>
	<path fill="#041E41" d="M120.523,49.628h-1.396v-1.046l-0.008-0.009c-0.426,0.275-0.956,0.56-1.592,0.852
		c-0.634,0.291-1.258,0.436-1.873,0.436c-0.836,0-1.489-0.248-1.962-0.745c-0.472-0.497-0.708-1.194-0.708-2.092
		c0-0.484,0.002-1.062,0.009-1.732s0.011-1.155,0.011-1.458c0-0.552-0.006-1.232-0.02-2.041c-0.013-0.81-0.02-1.267-0.02-1.369
		h1.433c0,0.079-0.006,0.516-0.017,1.311c-0.014,0.794-0.021,1.428-0.021,1.901c0,0.418,0.002,0.939,0.008,1.563
		c0.008,0.626,0.012,1.068,0.012,1.329c0.01,0.716,0.135,1.24,0.372,1.574c0.238,0.332,0.62,0.498,1.149,0.498
		c0.54,0,1.134-0.142,1.78-0.428c0.647-0.287,1.122-0.538,1.427-0.753c0-0.072,0.003-0.409,0.009-1.008s0.009-1.346,0.009-2.238
		c0-0.64-0.006-1.405-0.018-2.295c-0.013-0.892-0.02-1.376-0.02-1.455h1.434c0,0.103-0.007,0.444-0.019,1.024
		c-0.013,0.578-0.018,1.565-0.018,2.959c0,0.783,0,1.47,0.008,2.061C120.502,47.058,120.51,48.113,120.523,49.628z"/>
	<path fill="#041E41" d="M130.173,49.628h-1.434c0.007-0.169,0.014-0.73,0.024-1.684c0.01-0.954,0.015-1.542,0.015-1.768
		c0-0.315-0.003-0.781-0.005-1.397c-0.004-0.616-0.008-1.066-0.015-1.352c-0.02-0.699-0.151-1.199-0.4-1.503
		c-0.25-0.304-0.682-0.456-1.296-0.456c-0.37,0-0.828,0.109-1.375,0.328c-0.546,0.217-1.099,0.496-1.658,0.835
		c0,0.067-0.004,0.429-0.009,1.084c-0.007,0.655-0.01,1.255-0.01,1.795c0,0.704,0.006,1.555,0.019,2.55
		c0.014,0.997,0.02,1.519,0.02,1.567h-1.435c0-0.042,0.006-0.413,0.019-1.113c0.014-0.701,0.021-1.743,0.021-3.125
		c0-0.637-0.002-1.383-0.006-2.237c-0.002-0.855-0.014-1.766-0.033-2.729h1.415v1.046l0.008,0.019
		c0.85-0.49,1.557-0.832,2.124-1.026c0.568-0.192,1.038-0.29,1.415-0.29c0.777,0,1.4,0.244,1.871,0.732
		c0.471,0.489,0.705,1.159,0.705,2.01c0,0.767-0.002,1.426-0.009,1.981c-0.006,0.557-0.01,1.007-0.01,1.354
		c0,0.553,0.007,1.244,0.019,2.071C130.167,49.151,130.173,49.586,130.173,49.628z"/>
	<path fill="#041E41" d="M133.816,38.661h-1.59v-1.57h1.59V38.661z M133.74,49.628h-1.436c0.006-0.097,0.014-0.694,0.024-1.792
		c0.009-1.098,0.015-2.004,0.015-2.721c0-0.623-0.002-1.311-0.005-2.059c-0.003-0.749-0.015-1.627-0.034-2.634h1.436
		c-0.012,0.873-0.02,1.69-0.028,2.45c-0.01,0.762-0.013,1.44-0.013,2.035c0,1.413,0.008,2.547,0.021,3.401
		C133.732,49.166,133.74,49.605,133.74,49.628z"/>
	<path fill="#041E41" d="M141.567,48.504l-0.163,1.163c-0.043,0.004-0.148,0.01-0.314,0.013c-0.167,0.005-0.312,0.008-0.433,0.008
		c-1.245,0-2.186-0.26-2.823-0.779c-0.638-0.52-0.956-1.313-0.956-2.388c0-0.674,0.002-1.395,0.01-2.166
		c0.004-0.77,0.008-1.725,0.008-2.865h-1.53v-1.066h1.608v-2.151h1.316v2.151h3.276v1.066h-3.276c0,0.126-0.002,0.506-0.008,1.135
		c-0.007,0.631-0.009,1.098-0.009,1.4c0,0.253,0,0.566,0,0.937c0,0.369,0,0.808,0,1.316c0,0.788,0.211,1.356,0.638,1.704
		c0.425,0.349,1.083,0.522,1.971,0.522c0.109,0,0.24,0,0.394,0C141.427,48.504,141.524,48.504,141.567,48.504z"/>
	<path fill="#041E41" d="M151.647,40.807c-1.184,2.604-2.43,5.369-3.738,8.297c-1.308,2.927-2.005,4.483-2.091,4.672l-1.257-0.464
		l1.889-3.903c-0.049-0.12-0.43-1.006-1.144-2.655c-0.715-1.648-1.585-3.621-2.612-5.913l1.37-0.592
		c0.667,1.687,1.35,3.353,2.041,4.999c0.693,1.646,1.057,2.512,1.093,2.597h0.019c0.036-0.061,0.383-0.864,1.04-2.413
		c0.656-1.548,1.373-3.255,2.15-5.124L151.647,40.807z"/>
	<path fill="#041E41" d="M162.352,44.431c0,1.504-0.003,2.727-0.009,3.671c-0.008,0.945-0.01,1.453-0.01,1.526
		c-0.063,0.007-0.344,0.035-0.847,0.083c-0.504,0.048-1.154,0.072-1.949,0.072c-0.498,0-0.997-0.046-1.501-0.137
		c-0.504-0.092-0.938-0.222-1.302-0.393c-0.486-0.225-0.878-0.532-1.179-0.922c-0.3-0.391-0.45-0.858-0.45-1.405
		c0-0.577,0.177-1.078,0.533-1.501c0.355-0.424,0.85-0.767,1.48-1.028c0.396-0.163,0.924-0.311,1.583-0.441
		c0.66-0.131,1.413-0.229,2.256-0.297c-0.036-0.473-0.155-0.858-0.356-1.161c-0.2-0.303-0.496-0.533-0.885-0.69
		c-0.268-0.109-0.564-0.187-0.896-0.231c-0.327-0.045-0.711-0.068-1.149-0.068c-0.274,0-0.508,0.005-0.699,0.017
		c-0.192,0.012-0.453,0.025-0.781,0.041l0.145-1.201c0.091-0.006,0.273-0.017,0.542-0.033c0.272-0.017,0.641-0.024,1.108-0.024
		c0.718,0,1.356,0.074,1.92,0.224c0.561,0.147,1.027,0.387,1.399,0.721c0.347,0.315,0.607,0.704,0.783,1.168
		C162.264,42.882,162.352,43.554,162.352,44.431z M160.955,46.631c0-0.208,0-0.47,0-0.789c0-0.315-0.001-0.683-0.009-1.098
		c-0.265,0.012-0.733,0.066-1.401,0.16c-0.669,0.095-1.231,0.23-1.686,0.408c-0.338,0.128-0.642,0.32-0.906,0.577
		c-0.262,0.255-0.396,0.573-0.396,0.95c0,0.416,0.113,0.75,0.337,1.003c0.225,0.255,0.532,0.447,0.922,0.582
		c0.298,0.104,0.628,0.179,0.991,0.224c0.362,0.047,0.744,0.069,1.144,0.069c0.121,0,0.271-0.003,0.448-0.01
		c0.176-0.006,0.361-0.012,0.556-0.019c0-0.042,0-0.243,0-0.604S160.955,47.242,160.955,46.631z"/>
	<path fill="#041E41" d="M171.907,49.628h-1.434c0.006-0.169,0.015-0.73,0.024-1.684c0.01-0.954,0.013-1.542,0.013-1.768
		c0-0.315,0-0.781-0.002-1.397c-0.004-0.616-0.009-1.066-0.015-1.352c-0.019-0.699-0.151-1.199-0.401-1.503
		c-0.249-0.304-0.68-0.456-1.293-0.456c-0.371,0-0.831,0.109-1.377,0.328c-0.546,0.217-1.099,0.496-1.656,0.835
		c0,0.067-0.004,0.429-0.013,1.084c-0.005,0.655-0.009,1.255-0.009,1.795c0,0.704,0.007,1.555,0.021,2.55
		c0.011,0.997,0.019,1.519,0.019,1.567h-1.435c0-0.042,0.006-0.413,0.02-1.113c0.012-0.701,0.02-1.743,0.02-3.125
		c0-0.637-0.001-1.383-0.005-2.237c-0.003-0.855-0.015-1.766-0.035-2.729h1.416v1.046l0.008,0.019
		c0.849-0.49,1.556-0.832,2.123-1.026c0.566-0.192,1.038-0.29,1.413-0.29c0.778,0,1.402,0.244,1.872,0.732
		c0.471,0.489,0.708,1.159,0.708,2.01c0,0.767-0.004,1.426-0.011,1.981c-0.008,0.557-0.01,1.007-0.01,1.354
		c0,0.553,0.005,1.244,0.021,2.071C171.9,49.151,171.907,49.586,171.907,49.628z"/>
	<path fill="#041E41" d="M181.577,49.774c-0.036,0-0.153,0.002-0.348,0.006c-0.193,0.002-0.347,0.004-0.464,0.004
		c-1.148,0-2.05-0.05-2.698-0.15c-0.65-0.1-1.288-0.299-1.907-0.596c-0.81-0.389-1.423-0.904-1.843-1.547
		c-0.417-0.645-0.628-1.36-0.628-2.149c0-0.923,0.233-1.74,0.701-2.453c0.468-0.711,1.145-1.27,2.022-1.67
		c0.52-0.242,1.111-0.425,1.781-0.55c0.669-0.125,1.324-0.188,1.969-0.188l-0.019-4.205h1.434c0,0.121-0.007,0.973-0.021,2.551
		c-0.011,1.579-0.021,3.179-0.021,4.801c0,1.281,0.007,2.439,0.017,3.475S181.569,49.028,181.577,49.774z M180.162,43.367
		c0-0.242,0-0.51,0-0.8c0-0.292,0-0.585,0-0.884c-0.608,0-1.182,0.051-1.721,0.155c-0.538,0.103-0.999,0.242-1.382,0.418
		c-0.61,0.279-1.08,0.679-1.415,1.197c-0.335,0.52-0.5,1.128-0.5,1.826c0,0.625,0.16,1.162,0.482,1.61
		c0.324,0.45,0.724,0.802,1.205,1.057c0.419,0.226,0.892,0.394,1.42,0.505c0.523,0.113,1.075,0.169,1.654,0.169
		c0.042,0,0.082,0,0.118,0c0.036,0,0.077,0,0.12,0c0-0.055,0.001-0.508,0.009-1.36C180.16,46.408,180.162,45.109,180.162,43.367z"/>
	<path fill="#041E41" d="M197.169,38.717c-0.098,0-0.503-0.002-1.216-0.009c-0.714-0.007-1.794-0.01-3.241-0.01
		c-0.013,1.245-0.022,2.19-0.029,2.835c-0.008,0.645-0.009,1.522-0.009,2.635c0,1.069,0.003,2.156,0.014,3.26
		c0.011,1.103,0.017,1.837,0.024,2.2h-1.514c0.011-0.363,0.021-1.108,0.028-2.232c0.008-1.125,0.011-2.226,0.011-3.301
		c0-1.058,0-1.897,0-2.521s-0.006-1.581-0.019-2.876c-1.29-0.007-2.334-0.005-3.136,0.004c-0.802,0.011-1.241,0.015-1.321,0.015
		v-1.259c0.625,0,1.382,0.003,2.277,0.01c0.894,0.007,1.846,0.011,2.859,0.011c1.465,0,2.691-0.004,3.676-0.011
		s1.516-0.01,1.595-0.01V38.717z"/>
	<path fill="#041E41" d="M204.189,44.686h-6.583c0.004,0.645,0.141,1.235,0.409,1.772c0.267,0.537,0.677,0.98,1.23,1.334
		c0.35,0.224,0.75,0.394,1.2,0.505c0.45,0.112,0.99,0.169,1.619,0.169c0.346,0,0.664-0.009,0.952-0.025s0.465-0.028,0.533-0.032
		l-0.164,1.201c-0.048,0.007-0.21,0.018-0.481,0.033c-0.275,0.016-0.598,0.024-0.967,0.024c-0.972,0-1.818-0.126-2.538-0.377
		c-0.72-0.253-1.311-0.601-1.773-1.045c-0.393-0.371-0.73-0.845-1.005-1.421c-0.275-0.578-0.415-1.219-0.415-1.924
		c0-0.692,0.104-1.318,0.311-1.877c0.205-0.559,0.513-1.079,0.927-1.559c0.361-0.412,0.804-0.731,1.336-0.958
		c0.532-0.224,1.083-0.336,1.653-0.336c0.566,0,1.068,0.085,1.506,0.256c0.437,0.169,0.816,0.429,1.136,0.775
		c0.362,0.389,0.634,0.867,0.822,1.436C204.084,43.208,204.182,43.89,204.189,44.686z M202.772,43.66
		c-0.098-0.755-0.352-1.349-0.768-1.778c-0.415-0.429-0.963-0.644-1.643-0.644c-0.679,0-1.246,0.218-1.701,0.653
		s-0.771,1.024-0.946,1.769H202.772z"/>
	<path fill="#041E41" d="M212.023,48.447l-0.109,1.221c-0.048,0-0.125,0-0.233,0c-0.104,0-0.195,0-0.266,0
		c-0.784,0-1.517-0.073-2.196-0.223c-0.68-0.149-1.291-0.369-1.83-0.661c-0.736-0.4-1.31-0.933-1.723-1.594
		c-0.413-0.662-0.618-1.4-0.618-2.214c0-0.729,0.188-1.397,0.564-2.009c0.378-0.61,0.869-1.109,1.478-1.5
		c0.547-0.351,1.202-0.62,1.965-0.806c0.764-0.185,1.553-0.276,2.366-0.276c0.067,0,0.136,0,0.206,0s0.127,0,0.169,0l0.073,1.22
		c-0.044,0-0.091,0-0.142,0c-0.05,0-0.099,0-0.141,0c-0.676,0-1.253,0.042-1.73,0.124c-0.477,0.081-0.942,0.216-1.392,0.404
		c-0.605,0.242-1.082,0.627-1.435,1.148c-0.353,0.523-0.529,1.081-0.529,1.676c0,0.711,0.165,1.309,0.498,1.79
		c0.329,0.483,0.77,0.855,1.316,1.116c0.426,0.207,0.905,0.355,1.44,0.446c0.535,0.091,1.101,0.137,1.694,0.137
		c0.099,0,0.208,0,0.328,0C211.899,48.447,211.981,48.447,212.023,48.447z"/>
	<path fill="#041E41" d="M221.362,49.628h-1.435c0.007-0.183,0.014-0.729,0.024-1.644c0.008-0.913,0.015-1.517,0.015-1.808
		c0-0.315-0.002-0.781-0.006-1.397c-0.001-0.616-0.007-1.066-0.015-1.352c-0.018-0.699-0.149-1.199-0.399-1.503
		c-0.252-0.304-0.683-0.456-1.297-0.456c-0.347,0-0.791,0.104-1.334,0.309c-0.541,0.205-1.114,0.483-1.715,0.836l0.037,7.015h-1.432
		c0.004-0.237,0.015-1.191,0.025-2.864c0.008-1.673,0.014-3.05,0.014-4.131c0-0.704-0.003-1.592-0.005-2.664
		c-0.005-1.071-0.016-2.302-0.034-3.693h1.432l-0.037,5.165l0.009,0.01c0.87-0.48,1.579-0.814,2.133-1.001
		c0.555-0.186,1.028-0.278,1.423-0.278c0.776,0,1.401,0.244,1.872,0.732c0.468,0.489,0.705,1.159,0.705,2.01
		c0,0.767-0.003,1.426-0.008,1.981c-0.006,0.557-0.012,1.007-0.012,1.354c0,0.553,0.005,1.188,0.014,1.904
		C221.349,48.87,221.356,49.362,221.362,49.628z"/>
	<path fill="#041E41" d="M230.955,49.628h-1.435c0.007-0.169,0.015-0.73,0.023-1.684c0.009-0.954,0.015-1.542,0.015-1.768
		c0-0.315-0.001-0.781-0.005-1.397c-0.001-0.616-0.006-1.066-0.015-1.352c-0.018-0.699-0.151-1.199-0.4-1.503
		s-0.68-0.456-1.294-0.456c-0.369,0-0.83,0.109-1.376,0.328c-0.546,0.217-1.098,0.496-1.656,0.835c0,0.067-0.004,0.429-0.011,1.084
		c-0.007,0.655-0.01,1.255-0.01,1.795c0,0.704,0.007,1.555,0.021,2.55c0.01,0.997,0.018,1.519,0.018,1.567h-1.435
		c0-0.042,0.008-0.413,0.02-1.113c0.012-0.701,0.02-1.743,0.02-3.125c0-0.637-0.002-1.383-0.006-2.237
		c-0.002-0.855-0.014-1.766-0.034-2.729h1.417v1.046l0.008,0.019c0.847-0.49,1.556-0.832,2.124-1.026
		c0.564-0.192,1.037-0.29,1.413-0.29c0.778,0,1.402,0.244,1.872,0.732c0.469,0.489,0.705,1.159,0.705,2.01
		c0,0.767-0.001,1.426-0.008,1.981c-0.006,0.557-0.011,1.007-0.011,1.354c0,0.553,0.007,1.244,0.019,2.071
		C230.946,49.151,230.955,49.586,230.955,49.628z"/>
	<path fill="#041E41" d="M234.596,38.661h-1.589v-1.57h1.589V38.661z M234.518,49.628h-1.435c0.007-0.097,0.015-0.694,0.023-1.792
		c0.013-1.098,0.017-2.004,0.017-2.721c0-0.623-0.002-1.311-0.004-2.059c-0.004-0.749-0.015-1.627-0.036-2.634h1.435
		c-0.011,0.873-0.019,1.69-0.027,2.45c-0.008,0.762-0.01,1.44-0.01,2.035c0,1.413,0.006,2.547,0.019,3.401
		C234.51,49.166,234.518,49.605,234.518,49.628z"/>
	<path fill="#041E41" d="M243.395,48.447l-0.11,1.221c-0.05,0-0.125,0-0.231,0s-0.196,0-0.269,0c-0.784,0-1.516-0.073-2.196-0.223
		c-0.679-0.149-1.291-0.369-1.83-0.661c-0.734-0.4-1.308-0.933-1.722-1.594c-0.413-0.662-0.619-1.4-0.619-2.214
		c0-0.729,0.19-1.397,0.566-2.009c0.376-0.61,0.868-1.109,1.476-1.5c0.549-0.351,1.205-0.62,1.967-0.806
		c0.762-0.185,1.551-0.276,2.368-0.276c0.064,0,0.133,0,0.204,0c0.068,0,0.126,0,0.167,0l0.072,1.22c-0.042,0-0.088,0-0.14,0
		c-0.051,0-0.099,0-0.142,0c-0.675,0-1.254,0.042-1.729,0.124c-0.478,0.081-0.943,0.216-1.393,0.404
		c-0.602,0.242-1.081,0.627-1.433,1.148c-0.355,0.523-0.53,1.081-0.53,1.676c0,0.711,0.165,1.309,0.496,1.79
		c0.33,0.483,0.772,0.855,1.318,1.116c0.424,0.207,0.905,0.355,1.44,0.446c0.535,0.091,1.099,0.137,1.694,0.137
		c0.097,0,0.206,0,0.328,0C243.27,48.447,243.35,48.447,243.395,48.447z"/>
	<path fill="#041E41" d="M252.131,44.431c0,1.504-0.003,2.727-0.01,3.671c-0.005,0.945-0.01,1.453-0.01,1.526
		c-0.061,0.007-0.344,0.035-0.846,0.083c-0.503,0.048-1.154,0.072-1.95,0.072c-0.496,0-0.997-0.046-1.501-0.137
		c-0.503-0.092-0.938-0.222-1.301-0.393c-0.487-0.225-0.88-0.532-1.179-0.922c-0.301-0.391-0.45-0.858-0.45-1.405
		c0-0.577,0.177-1.078,0.531-1.501c0.355-0.424,0.851-0.767,1.481-1.028c0.396-0.163,0.923-0.311,1.582-0.441
		c0.661-0.131,1.413-0.229,2.258-0.297c-0.038-0.473-0.157-0.858-0.358-1.161c-0.2-0.303-0.495-0.533-0.884-0.69
		c-0.27-0.109-0.568-0.187-0.895-0.231c-0.331-0.045-0.712-0.068-1.15-0.068c-0.275,0-0.508,0.005-0.7,0.017
		c-0.191,0.012-0.452,0.025-0.782,0.041l0.146-1.201c0.092-0.006,0.273-0.017,0.542-0.033c0.272-0.017,0.641-0.024,1.109-0.024
		c0.718,0,1.356,0.074,1.919,0.224c0.561,0.147,1.028,0.387,1.4,0.721c0.345,0.315,0.606,0.704,0.784,1.168
		C252.041,42.882,252.131,43.554,252.131,44.431z M250.736,46.631c0-0.208,0-0.47,0-0.789c0-0.315-0.004-0.683-0.009-1.098
		c-0.268,0.012-0.735,0.066-1.404,0.16c-0.668,0.095-1.229,0.23-1.685,0.408c-0.339,0.128-0.642,0.32-0.905,0.577
		c-0.264,0.255-0.396,0.573-0.396,0.95c0,0.416,0.113,0.75,0.337,1.003c0.226,0.255,0.532,0.447,0.922,0.582
		c0.297,0.104,0.627,0.179,0.991,0.224c0.361,0.047,0.742,0.069,1.146,0.069c0.121,0,0.27-0.003,0.446-0.01
		c0.177-0.006,0.361-0.012,0.558-0.019c0-0.042,0-0.243,0-0.604S250.736,47.242,250.736,46.631z"/>
	<path fill="#041E41" d="M256.281,49.628h-1.436c0.007-0.073,0.016-0.96,0.025-2.664c0.011-1.702,0.015-3.117,0.015-4.239
		c0-0.723-0.002-1.636-0.004-2.737c-0.005-1.102-0.015-2.339-0.036-3.712h1.436c-0.014,0.936-0.024,2.018-0.028,3.247
		c-0.007,1.229-0.011,2.267-0.011,3.11c0,1.84,0.005,3.45,0.02,4.828C256.273,48.839,256.281,49.562,256.281,49.628z"/>
	<path fill="#041E41" d="M272.907,48.524c-0.006,0.055-0.023,0.207-0.05,0.458c-0.027,0.251-0.055,0.524-0.078,0.821
		c-0.048,0-0.101,0-0.16,0c-0.057,0-0.11,0-0.16,0c-1.481,0-2.798-0.187-3.953-0.561c-1.152-0.375-2.101-0.916-2.839-1.628
		c-0.517-0.492-0.926-1.081-1.225-1.769c-0.303-0.687-0.452-1.471-0.452-2.352c0-0.79,0.149-1.512,0.446-2.164
		c0.297-0.654,0.687-1.225,1.166-1.71c0.699-0.705,1.638-1.265,2.815-1.678c1.181-0.414,2.441-0.62,3.783-0.62
		c0.067,0,0.144,0,0.229,0c0.083,0,0.146,0,0.182,0c0.006,0.108,0.019,0.283,0.035,0.522c0.02,0.239,0.04,0.497,0.064,0.775
		c-0.062,0-0.113,0-0.155,0c-0.043,0-0.094,0-0.156,0c-0.758,0-1.547,0.085-2.362,0.252c-0.816,0.167-1.519,0.419-2.107,0.752
		c-0.768,0.438-1.358,1-1.77,1.685c-0.414,0.684-0.621,1.422-0.621,2.214c0,0.82,0.185,1.567,0.556,2.24
		c0.371,0.672,0.958,1.236,1.757,1.693c0.658,0.376,1.391,0.65,2.203,0.82c0.812,0.171,1.618,0.256,2.42,0.256
		c0.037,0,0.094,0,0.173,0C272.731,48.533,272.816,48.531,272.907,48.524z"/>
	<path fill="#041E41" d="M283.239,45.016c0,0.704-0.126,1.378-0.378,2.022c-0.25,0.644-0.614,1.193-1.087,1.647
		c-0.401,0.383-0.846,0.675-1.334,0.875c-0.49,0.2-1.042,0.3-1.663,0.3c-0.583,0-1.127-0.099-1.639-0.296
		c-0.51-0.197-0.965-0.486-1.365-0.869c-0.463-0.443-0.818-0.989-1.071-1.641c-0.251-0.648-0.377-1.335-0.377-2.058
		c0-0.697,0.106-1.34,0.323-1.926c0.215-0.586,0.552-1.111,1.006-1.579c0.408-0.425,0.88-0.753,1.421-0.979
		c0.541-0.229,1.111-0.342,1.712-0.342c0.63,0,1.202,0.105,1.716,0.313c0.513,0.211,0.969,0.524,1.37,0.943
		c0.462,0.479,0.805,1.018,1.028,1.617C283.127,43.641,283.239,44.3,283.239,45.016z M281.786,45.08
		c0-0.569-0.092-1.124-0.279-1.662c-0.185-0.541-0.471-0.995-0.861-1.365c-0.238-0.23-0.518-0.408-0.843-0.531
		c-0.325-0.125-0.663-0.188-1.016-0.188c-0.42,0-0.784,0.067-1.097,0.2c-0.307,0.134-0.6,0.344-0.873,0.628
		c-0.324,0.327-0.576,0.745-0.763,1.256c-0.186,0.508-0.278,1.035-0.278,1.58c0,0.618,0.094,1.188,0.284,1.705
		c0.188,0.519,0.492,0.965,0.912,1.342c0.237,0.212,0.51,0.374,0.82,0.486c0.311,0.111,0.639,0.167,0.984,0.167
		c0.384,0,0.741-0.065,1.072-0.199c0.331-0.133,0.62-0.326,0.871-0.582c0.347-0.352,0.612-0.775,0.793-1.273
		C281.694,46.147,281.786,45.625,281.786,45.08z"/>
	<path fill="#041E41" d="M286.654,49.628h-1.433c0.004-0.073,0.014-0.96,0.022-2.664c0.008-1.702,0.014-3.117,0.014-4.239
		c0-0.723,0-1.636-0.005-2.737c-0.002-1.102-0.014-2.339-0.031-3.712h1.433c-0.014,0.936-0.022,2.018-0.03,3.247
		c-0.006,1.229-0.008,2.267-0.008,3.11c0,1.84,0.005,3.45,0.018,4.828S286.654,49.562,286.654,49.628z"/>
	<path fill="#041E41" d="M291.004,49.628h-1.435c0.008-0.073,0.015-0.96,0.026-2.664c0.009-1.702,0.013-3.117,0.013-4.239
		c0-0.723-0.002-1.636-0.004-2.737c-0.001-1.102-0.014-2.339-0.035-3.712h1.435c-0.013,0.936-0.022,2.018-0.028,3.247
		c-0.007,1.229-0.01,2.267-0.01,3.11c0,1.84,0.007,3.45,0.02,4.828C290.999,48.839,291.004,49.562,291.004,49.628z"/>
	<path fill="#041E41" d="M300.935,44.686h-6.583c0.006,0.645,0.143,1.235,0.41,1.772c0.268,0.537,0.676,0.98,1.231,1.334
		c0.35,0.224,0.75,0.394,1.2,0.505c0.449,0.112,0.989,0.169,1.62,0.169c0.346,0,0.661-0.009,0.951-0.025
		c0.288-0.017,0.466-0.028,0.533-0.032l-0.165,1.201c-0.049,0.007-0.21,0.018-0.482,0.033c-0.273,0.016-0.595,0.024-0.967,0.024
		c-0.973,0-1.818-0.126-2.537-0.377c-0.721-0.253-1.312-0.601-1.771-1.045c-0.396-0.371-0.731-0.845-1.01-1.421
		c-0.275-0.578-0.413-1.219-0.413-1.924c0-0.692,0.104-1.318,0.309-1.877c0.207-0.559,0.516-1.079,0.932-1.559
		c0.358-0.412,0.801-0.731,1.333-0.958c0.532-0.224,1.082-0.336,1.654-0.336c0.565,0,1.067,0.085,1.504,0.256
		c0.437,0.169,0.818,0.429,1.14,0.775c0.358,0.389,0.632,0.867,0.82,1.436C300.831,43.208,300.929,43.89,300.935,44.686z
		 M299.521,43.66c-0.098-0.755-0.354-1.349-0.768-1.778c-0.417-0.429-0.964-0.644-1.644-0.644c-0.678,0-1.246,0.218-1.7,0.653
		s-0.77,1.024-0.945,1.769H299.521z"/>
	<path fill="#041E41" d="M309.682,40.327c0,0.133-0.002,0.735-0.009,1.804c-0.006,1.07-0.011,2.088-0.011,3.053
		c0,0.655,0.005,1.325,0.011,2.005c0.007,0.681,0.009,1.303,0.009,1.867c0,1.039-0.177,1.854-0.534,2.442
		c-0.356,0.59-0.865,1.061-1.522,1.412c-0.519,0.268-1.149,0.479-1.893,0.635c-0.745,0.153-1.648,0.231-2.708,0.231l-0.146-1.163
		c0.711-0.012,1.347-0.05,1.912-0.113c0.563-0.063,1.076-0.18,1.538-0.35c0.71-0.266,1.203-0.618,1.482-1.057
		s0.425-0.972,0.437-1.601c-0.073,0-0.145,0-0.216,0c-0.075,0-0.147,0-0.221,0c-0.719,0-1.462-0.087-2.224-0.26
		c-0.762-0.173-1.416-0.447-1.954-0.824c-0.532-0.359-0.967-0.827-1.3-1.406c-0.333-0.577-0.499-1.292-0.499-2.143
		c0-0.852,0.232-1.603,0.7-2.254c0.471-0.65,1.095-1.166,1.879-1.55c0.558-0.273,1.168-0.463,1.827-0.57
		c0.661-0.106,1.459-0.159,2.395-0.159c0.17,0,0.339,0,0.505,0C309.307,40.327,309.487,40.327,309.682,40.327z M308.27,45.172
		c0-0.435-0.004-0.981-0.005-1.636c-0.002-0.654-0.008-1.338-0.017-2.047c-0.036,0-0.076,0-0.117,0c-0.043,0-0.083,0-0.121,0
		c-0.564,0-1.056,0.035-1.479,0.108c-0.419,0.073-0.866,0.21-1.332,0.409c-0.62,0.268-1.093,0.659-1.421,1.173
		c-0.327,0.517-0.491,1.099-0.491,1.747c0,0.668,0.164,1.237,0.485,1.711c0.325,0.473,0.761,0.84,1.306,1.101
		c0.368,0.176,0.798,0.318,1.283,0.427c0.49,0.11,1.005,0.165,1.553,0.165c0.065,0,0.126,0,0.182,0c0.052,0,0.103,0,0.152,0
		c0-0.072,0.002-0.412,0.011-1.015C308.265,46.712,308.27,45.999,308.27,45.172z"/>
	<path fill="#041E41" d="M319.466,44.686h-6.583c0.005,0.645,0.142,1.235,0.408,1.772c0.268,0.537,0.677,0.98,1.23,1.334
		c0.351,0.224,0.753,0.394,1.202,0.505c0.449,0.112,0.988,0.169,1.62,0.169c0.344,0,0.661-0.009,0.951-0.025
		c0.286-0.017,0.464-0.028,0.532-0.032l-0.165,1.201c-0.048,0.007-0.21,0.018-0.482,0.033c-0.273,0.016-0.597,0.024-0.968,0.024
		c-0.97,0-1.816-0.126-2.536-0.377c-0.72-0.253-1.311-0.601-1.772-1.045c-0.396-0.371-0.733-0.845-1.007-1.421
		c-0.278-0.578-0.416-1.219-0.416-1.924c0-0.692,0.103-1.318,0.31-1.877c0.206-0.559,0.517-1.079,0.93-1.559
		c0.358-0.412,0.803-0.731,1.334-0.958c0.534-0.224,1.083-0.336,1.656-0.336c0.566,0,1.067,0.085,1.502,0.256
		c0.438,0.169,0.818,0.429,1.14,0.775c0.356,0.389,0.633,0.867,0.822,1.436C319.362,43.208,319.458,43.89,319.466,44.686z
		 M318.05,43.66c-0.097-0.755-0.353-1.349-0.769-1.778c-0.416-0.429-0.962-0.644-1.642-0.644c-0.677,0-1.248,0.218-1.703,0.653
		c-0.454,0.436-0.769,1.024-0.944,1.769H318.05z"/>
	<path fill="#041E41" d="M27.835,0C12.463,0,0,12.462,0,27.835c0,4.58,1.106,8.9,3.066,12.71C2.34,38.109,1.95,35.531,1.95,32.859
		c0-14.884,12.065-26.948,26.948-26.948c2.979,0,5.842,0.484,8.52,1.376c-0.234-0.008-0.466-0.018-0.702-0.018
		c-10.904,0-19.743,8.839-19.743,19.742c0,2.996,0.67,5.833,1.864,8.376c2.102-8.645,9.89-15.066,19.181-15.066
		c3.056,0,5.949,0.695,8.531,1.933c-1.117-0.407-2.326-0.63-3.584-0.63c-5.778,0-10.465,4.686-10.465,10.466
		c0,5.779,4.687,10.464,10.465,10.464c5.356,0,10.347-3.634,12.28-9.852c0.279-1.58,0.426-3.207,0.426-4.868
		C55.671,12.462,43.207,0,27.835,0z"/>
	<path fill="#026937" d="M26.083,38.017c-0.245,1.257-0.375,2.554-0.375,3.883c0,4.804,1.67,9.217,4.454,12.694
		c-9.8-3.04-17.295-11.316-19.218-21.559c-0.317,1.686-0.484,3.424-0.484,5.199c0,5.147,1.389,9.969,3.811,14.112
		c0,0,0,0.001,0,0.001c0.158,0.088,0.317,0.171,0.474,0.254c0.089,0.047,0.178,0.096,0.266,0.141
		c0.206,0.107,0.412,0.207,0.619,0.308c0.053,0.025,0.103,0.053,0.156,0.077c3.649,1.743,7.734,2.72,12.049,2.72
		c0.253,0,0.505-0.004,0.755-0.011c0.054-0.002,0.109-0.004,0.163-0.006c0.224-0.007,0.447-0.017,0.668-0.028
		c0.024-0.002,0.047-0.004,0.071-0.005c0.532-0.031,1.059-0.077,1.583-0.138c0.701-0.081,1.394-0.188,2.078-0.319
		c6.148-1.181,11.578-4.371,15.586-8.862c-2.277,1.247-4.889,1.956-7.667,1.956C34.203,48.434,28.344,44.099,26.083,38.017z"/>
</g>
</svg>
